<mxfile host="app.diagrams.net" agent="Mozilla/5.0 (Windows NT 10.0; Win64; x64) AppleWebKit/537.36 (KHTML, like Gecko) Chrome/126.0.0.0 Safari/537.36" version="24.7.6" pages="2">
  <diagram name="第 1 页" id="bU-xMZTI8MpihGftyLqU">
    <mxGraphModel dx="1509" dy="831" grid="1" gridSize="10" guides="1" tooltips="1" connect="1" arrows="1" fold="1" page="0" pageScale="1" pageWidth="827" pageHeight="1169" math="0" shadow="0">
      <root>
        <mxCell id="0" />
        <mxCell id="1" parent="0" />
        <mxCell id="bQHwtgiF9r9U_ECL-Ta0-17" style="edgeStyle=orthogonalEdgeStyle;rounded=0;orthogonalLoop=1;jettySize=auto;html=1;exitX=1;exitY=0.25;exitDx=0;exitDy=0;entryX=0;entryY=0.25;entryDx=0;entryDy=0;" edge="1" parent="1" source="H16j5Ul2mI7U-3mI70LO-3" target="bQHwtgiF9r9U_ECL-Ta0-16">
          <mxGeometry relative="1" as="geometry" />
        </mxCell>
        <mxCell id="bQHwtgiF9r9U_ECL-Ta0-21" style="edgeStyle=orthogonalEdgeStyle;rounded=0;orthogonalLoop=1;jettySize=auto;html=1;exitX=0.5;exitY=1;exitDx=0;exitDy=0;entryX=0.5;entryY=0;entryDx=0;entryDy=0;" edge="1" parent="1" source="H16j5Ul2mI7U-3mI70LO-3" target="bQHwtgiF9r9U_ECL-Ta0-7">
          <mxGeometry relative="1" as="geometry" />
        </mxCell>
        <mxCell id="bQHwtgiF9r9U_ECL-Ta0-22" value="更新Task表" style="edgeLabel;html=1;align=center;verticalAlign=middle;resizable=0;points=[];" vertex="1" connectable="0" parent="bQHwtgiF9r9U_ECL-Ta0-21">
          <mxGeometry x="-0.2944" y="-2" relative="1" as="geometry">
            <mxPoint as="offset" />
          </mxGeometry>
        </mxCell>
        <mxCell id="H16j5Ul2mI7U-3mI70LO-3" value="&lt;span style=&quot;font-size: 13px;&quot;&gt;&lt;b&gt;callPylonNdviAlgorithm(SaAutoTask &lt;/b&gt;autoTask&lt;b&gt;)&lt;/b&gt;&lt;/span&gt;" style="rounded=1;whiteSpace=wrap;html=1;" vertex="1" parent="1">
          <mxGeometry x="419.5" y="330" width="321" height="60" as="geometry" />
        </mxCell>
        <mxCell id="bQHwtgiF9r9U_ECL-Ta0-3" style="edgeStyle=orthogonalEdgeStyle;rounded=0;orthogonalLoop=1;jettySize=auto;html=1;exitX=0.5;exitY=1;exitDx=0;exitDy=0;entryX=0.5;entryY=0;entryDx=0;entryDy=0;" edge="1" parent="1" source="H16j5Ul2mI7U-3mI70LO-6" target="H16j5Ul2mI7U-3mI70LO-3">
          <mxGeometry relative="1" as="geometry">
            <Array as="points">
              <mxPoint x="580" y="300" />
            </Array>
          </mxGeometry>
        </mxCell>
        <mxCell id="H16j5Ul2mI7U-3mI70LO-6" value="&lt;span style=&quot;text-align: left;&quot;&gt;&lt;b&gt;generateGrowthAutoTasks(String &lt;/b&gt;farmId&lt;b&gt;)&lt;/b&gt;&lt;/span&gt;" style="rounded=1;whiteSpace=wrap;html=1;" vertex="1" parent="1">
          <mxGeometry x="460" y="240" width="240" height="60" as="geometry" />
        </mxCell>
        <mxCell id="bQHwtgiF9r9U_ECL-Ta0-5" style="edgeStyle=orthogonalEdgeStyle;rounded=0;orthogonalLoop=1;jettySize=auto;html=1;exitX=0.5;exitY=1;exitDx=0;exitDy=0;entryX=0.5;entryY=0;entryDx=0;entryDy=0;" edge="1" parent="1" source="bQHwtgiF9r9U_ECL-Ta0-4" target="H16j5Ul2mI7U-3mI70LO-6">
          <mxGeometry relative="1" as="geometry" />
        </mxCell>
        <mxCell id="bQHwtgiF9r9U_ECL-Ta0-4" value="&lt;span style=&quot;font-size: 13px;&quot;&gt;&lt;b&gt;/autoTask/init&lt;/b&gt;&lt;/span&gt;&lt;div&gt;&lt;span style=&quot;font-size: 13px;&quot;&gt;farmId&lt;/span&gt;&lt;/div&gt;" style="rounded=1;whiteSpace=wrap;html=1;" vertex="1" parent="1">
          <mxGeometry x="515" y="140" width="130" height="60" as="geometry" />
        </mxCell>
        <mxCell id="bQHwtgiF9r9U_ECL-Ta0-25" style="edgeStyle=orthogonalEdgeStyle;rounded=0;orthogonalLoop=1;jettySize=auto;html=1;exitX=0;exitY=0.75;exitDx=0;exitDy=0;entryX=1;entryY=0.75;entryDx=0;entryDy=0;" edge="1" parent="1" source="bQHwtgiF9r9U_ECL-Ta0-7" target="bQHwtgiF9r9U_ECL-Ta0-23">
          <mxGeometry relative="1" as="geometry" />
        </mxCell>
        <mxCell id="bQHwtgiF9r9U_ECL-Ta0-7" value="&lt;span style=&quot;font-size: 13px;&quot;&gt;&lt;b&gt;DB的任务表&lt;/b&gt;&lt;/span&gt;" style="rounded=1;whiteSpace=wrap;html=1;" vertex="1" parent="1">
          <mxGeometry x="419.5" y="450" width="321" height="60" as="geometry" />
        </mxCell>
        <mxCell id="bQHwtgiF9r9U_ECL-Ta0-15" value="1.在已经处理完表中新增cloud_ratio字段&lt;br&gt;2.在接收时需要一个" style="text;html=1;align=center;verticalAlign=middle;resizable=0;points=[];autosize=1;strokeColor=none;fillColor=none;" vertex="1" parent="1">
          <mxGeometry x="850" y="460" width="240" height="40" as="geometry" />
        </mxCell>
        <mxCell id="bQHwtgiF9r9U_ECL-Ta0-18" style="edgeStyle=orthogonalEdgeStyle;rounded=0;orthogonalLoop=1;jettySize=auto;html=1;exitX=0;exitY=0.75;exitDx=0;exitDy=0;entryX=1;entryY=0.75;entryDx=0;entryDy=0;" edge="1" parent="1" source="bQHwtgiF9r9U_ECL-Ta0-16" target="H16j5Ul2mI7U-3mI70LO-3">
          <mxGeometry relative="1" as="geometry" />
        </mxCell>
        <mxCell id="bQHwtgiF9r9U_ECL-Ta0-16" value="&lt;p class=&quot;MsoNormal&quot;&gt;&lt;b&gt;&lt;span style=&quot;font-family: 等线; font-size: 10.5pt;&quot;&gt;/ndvi_pylon&lt;/span&gt;&lt;/b&gt;&lt;/p&gt;" style="rounded=1;whiteSpace=wrap;html=1;" vertex="1" parent="1">
          <mxGeometry x="890" y="330" width="321" height="60" as="geometry" />
        </mxCell>
        <mxCell id="bQHwtgiF9r9U_ECL-Ta0-19" value="request" style="text;html=1;align=center;verticalAlign=middle;resizable=0;points=[];autosize=1;strokeColor=none;fillColor=none;" vertex="1" parent="1">
          <mxGeometry x="780" y="318" width="60" height="30" as="geometry" />
        </mxCell>
        <mxCell id="bQHwtgiF9r9U_ECL-Ta0-20" value="返回【cloud_ratio】" style="text;html=1;align=center;verticalAlign=middle;resizable=0;points=[];autosize=1;strokeColor=none;fillColor=none;" vertex="1" parent="1">
          <mxGeometry x="760" y="380" width="130" height="30" as="geometry" />
        </mxCell>
        <mxCell id="bQHwtgiF9r9U_ECL-Ta0-28" style="edgeStyle=orthogonalEdgeStyle;rounded=0;orthogonalLoop=1;jettySize=auto;html=1;exitX=0.5;exitY=0;exitDx=0;exitDy=0;entryX=0;entryY=0.5;entryDx=0;entryDy=0;" edge="1" parent="1" source="bQHwtgiF9r9U_ECL-Ta0-23" target="H16j5Ul2mI7U-3mI70LO-3">
          <mxGeometry relative="1" as="geometry" />
        </mxCell>
        <mxCell id="bQHwtgiF9r9U_ECL-Ta0-23" value="&lt;b&gt;scheduleAutoTask（）&lt;/b&gt;" style="rounded=1;whiteSpace=wrap;html=1;" vertex="1" parent="1">
          <mxGeometry x="80" y="450" width="210" height="60" as="geometry" />
        </mxCell>
        <mxCell id="bQHwtgiF9r9U_ECL-Ta0-29" value="调用" style="text;html=1;align=center;verticalAlign=middle;whiteSpace=wrap;rounded=0;" vertex="1" parent="1">
          <mxGeometry x="260" y="330" width="60" height="30" as="geometry" />
        </mxCell>
        <mxCell id="bQHwtgiF9r9U_ECL-Ta0-31" value="&lt;span style=&quot;color: rgb(0, 0, 0); font-family: Helvetica; font-size: 11px; font-style: normal; font-variant-ligatures: normal; font-variant-caps: normal; font-weight: 400; letter-spacing: normal; orphans: 2; text-align: center; text-indent: 0px; text-transform: none; widows: 2; word-spacing: 0px; -webkit-text-stroke-width: 0px; white-space: nowrap; background-color: rgb(255, 255, 255); text-decoration-thickness: initial; text-decoration-style: initial; text-decoration-color: initial; display: inline !important; float: none;&quot;&gt;找到非处理、非失败、&lt;/span&gt;&lt;div&gt;&lt;span style=&quot;color: rgb(0, 0, 0); font-family: Helvetica; font-size: 11px; font-style: normal; font-variant-ligatures: normal; font-variant-caps: normal; font-weight: 400; letter-spacing: normal; orphans: 2; text-align: center; text-indent: 0px; text-transform: none; widows: 2; word-spacing: 0px; -webkit-text-stroke-width: 0px; white-space: nowrap; background-color: rgb(255, 255, 255); text-decoration-thickness: initial; text-decoration-style: initial; text-decoration-color: initial; display: inline !important; float: none;&quot;&gt;非成功的就绪任务&lt;/span&gt;&lt;/div&gt;" style="text;whiteSpace=wrap;html=1;" vertex="1" parent="1">
          <mxGeometry x="300" y="450" width="130" height="40" as="geometry" />
        </mxCell>
      </root>
    </mxGraphModel>
  </diagram>
  <diagram id="EQ65waDBrMR3BL9uuJkF" name="第 2 页">
    <mxGraphModel grid="1" page="1" gridSize="10" guides="1" tooltips="1" connect="1" arrows="1" fold="1" pageScale="1" pageWidth="827" pageHeight="1169" math="0" shadow="0">
      <root>
        <mxCell id="0" />
        <mxCell id="1" parent="0" />
      </root>
    </mxGraphModel>
  </diagram>
</mxfile>
